<svg aria-hidden="true" style="position:absolute;width:0;height:0;overflow:hidden" xmlns="http://www.w3.org/2000/svg">
  <defs>
    <symbol id="icon-Checkbox1" viewBox="0 0 32 32">
      <path stroke-width="2" d="M4 1h24a3 3 0 0 1 3 3v24a3 3 0 0 1-3 3H4a3 3 0 0 1-3-3V4a3 3 0 0 1 3-3z"/>
    </symbol>
    <symbol id="icon-close-black1" viewBox="0 0 32 32">
      <path d="M32 3.223 28.777 0 16 12.777 3.223 0 0 3.223 12.777 16 0 28.777 3.223 32 16 19.223 28.777 32 32 28.777 19.223 16 32 3.223z"/>
    </symbol>
    <symbol id="icon-email-black1" viewBox="0 0 24 32">
      <path d="M20 8H4c-1.1 0-1.99.9-1.99 2L2 22c0 1.1.9 2 2 2h16c1.1 0 2-.9 2-2V10c0-1.1-.9-2-2-2zm-.4 4.25-7.07 4.42c-.32.2-.74.2-1.06 0L4.4 12.25a.85.85 0 1 1 .9-1.44L12 15l6.7-4.19a.85.85 0 1 1 .9 1.44z"/>
    </symbol>
    <symbol id="icon-person-black1" viewBox="0 0 32 32">
      <path d="M16 16c2.947 0 5.333-2.387 5.333-5.333S18.946 5.334 16 5.334c-2.947 0-5.333 2.387-5.333 5.333S13.054 16 16 16zm0 2.667c-3.56 0-10.667 1.787-10.667 5.333v1.333c0 .733.6 1.333 1.333 1.333h18.667c.733 0 1.333-.6 1.333-1.333V24c0-3.547-7.107-5.333-10.667-5.333z"/>
    </symbol>
    <symbol id="icon-phone-black1" viewBox="0 0 24 32">
      <path d="m19.635 18.487-2.451-.28a1.92 1.92 0 0 0-1.582.55l-1.775 1.775a14.514 14.514 0 0 1-6.359-6.359l1.785-1.785c.415-.415.618-.994.55-1.582l-.28-2.432a1.931 1.931 0 0 0-1.92-1.708H5.934c-1.09 0-1.997.907-1.93 1.997.511 8.24 7.102 14.821 15.332 15.332 1.09.068 1.997-.839 1.997-1.93v-1.669a1.913 1.913 0 0 0-1.698-1.911z"/>
    </symbol>
    <symbol id="icon-solid_menu" viewBox="0 0 32 32">
<path d="M4.799 8.001c0-0.884 0.716-1.6 1.6-1.6h19.2c0 0 0 0 0 0 0.442 0 0.842 0.179 1.131 0.469v0c0.3 0.3 0.469 0.707 0.469 1.131s-0.169 0.831-0.469 1.131c-0.29 0.29-0.689 0.469-1.131 0.469-0 0-0 0-0 0h-19.2c-0.884 0-1.6-0.716-1.6-1.6v0zM4.799 16.001c0-0 0-0 0-0 0-0.442 0.179-0.842 0.469-1.131v0c0.29-0.29 0.689-0.469 1.131-0.469 0 0 0 0 0 0h19.2c0 0 0 0 0 0 0.442 0 0.842 0.179 1.131 0.469v0c0.29 0.289 0.469 0.689 0.469 1.131 0 0 0 0 0 0v0c0 0 0 0 0 0 0 0.442-0.179 0.842-0.469 1.131v0c-0.289 0.29-0.689 0.469-1.131 0.469-0 0-0 0-0 0h-19.2c-0 0-0 0-0 0-0.884 0-1.6-0.716-1.6-1.6 0-0 0-0 0-0v0zM4.799 24.001c0-0 0-0 0-0 0-0.442 0.179-0.842 0.469-1.131v0c0.29-0.29 0.689-0.469 1.131-0.469 0 0 0 0 0 0h19.2c0 0 0 0 0 0 0.442 0 0.842 0.179 1.131 0.469v0c0.29 0.289 0.469 0.689 0.469 1.131 0 0 0 0 0 0v0c0 0 0 0 0 0 0 0.442-0.179 0.842-0.469 1.131v0c-0.289 0.29-0.689 0.469-1.131 0.469-0 0-0 0-0 0h-19.2c-0 0-0 0-0 0-0.884 0-1.6-0.716-1.6-1.6 0-0 0-0 0-0v0z"></path>
</symbol>
  </defs>
</svg>
